<?xml version="1.0" encoding="UTF-8"?>
<svg id="Layer_2" data-name="Layer 2" xmlns="http://www.w3.org/2000/svg" viewBox="0 0 29.42 28.82">
  <defs>
    <style>
      .cls-1 {
        fill: #f8eac9;
      }

      .cls-1, .cls-2, .cls-3, .cls-4, .cls-5, .cls-6, .cls-7 {
        stroke-width: 0px;
      }

      .cls-2 {
        fill: #20201c;
      }

      .cls-3 {
        fill: #1e1e1c;
      }

      .cls-4 {
        fill: #f1c350;
      }

      .cls-5 {
        fill: #fafcfe;
      }

      .cls-6 {
        fill: #f6d484;
      }

      .cls-7 {
        fill: #f3c861;
      }
    </style>
  </defs>
  <g id="Layer_1-2" data-name="Layer 1">
    <g>
      <path class="cls-5" d="M6.4,13.27c.14-.23.16-.46,0-.69.43-.35.82-.02,1.23.06.95.18,1.9.53,2.98.11-.26-.42-.64-.33-.95-.37-2.03-.25-3.78-1.07-5.17-2.6-.32-.35-.66-.68-.71-1.2.29-1.8,1.76-2.4,3.16-3.05,1.42-.04,2.5.61,3.41,1.64.32.36.57,1.03,1.18.79.63-.24.51-.94.48-1.48-.06-1.19.25-2.28.76-3.33.98-2.02,2.91-2.81,4.96-2.03,1.92.74,2.73,2.51,2.13,4.68-.18.65-.48,1.26-.72,1.89-.11.29-.4.63-.14.88.31.3.67-.02.97-.17.67-.35,1.33-.71,2.02-1.02,2.72-1.24,5.04-.14,5.76,2.75.29,1.15.48,2.34.35,3.54-.22,1.91-1.13,2.73-3.04,2.77-1.01.02-1.97-.19-2.91-.51-.3-.1-.68-.21-.88.09-.26.37.16.56.37.75.78.66,1.01,1.59,1.25,2.51.49,1.9.75,3.83.22,5.76-.62,2.23-2.37,3.31-4.28,2.7-1.87-.6-3.11-3.03-2.54-4.94.16-.53.78-1.3.1-1.58-.81-.33-.85.69-1.1,1.22-.5,1.07-1.37,1.73-2.4,2.21-1.13.53-2.32.82-3.57.82-.94,0-1.73-.4-2.11-1.29-.38-.87-.14-1.7.44-2.45.47-.6,1.18-.92,1.73-1.54-.45-.33-.87-.16-1.26-.1-1.06.17-2.11.34-3.17.53-.63.11-1.27.17-1.89.01-.77-.19-1.4-.61-1.62-1.42-.23-.81.22-1.39.81-1.84,1.33-1,2.66-2,4.04-2.94.55-.37.7-.73.1-1.17Z"/>
      <path class="cls-3" d="M6.4,13.27c.38.04.91-.07,1.06.36.15.46-.38.63-.68.85-1.38,1-2.78,1.96-4.15,2.97-.6.44-1.3.93-.94,1.84.33.83,1.05,1.13,1.92,1.11,1.83-.05,3.6-.54,5.41-.75.4-.05.84-.22,1,.3.14.43-.25.61-.56.79-.66.37-1.28.8-1.74,1.42-.92,1.25-.39,2.83,1.13,2.97,2.17.2,4.14-.5,5.76-2,.4-.37.4-.93.56-1.42.24-.7.63-1.34,1.43-1.06.89.3.46,1.11.24,1.62-.77,1.73-.36,3.2.88,4.45,1.53,1.56,3.61,1.22,4.67-.67.51-.92.68-1.93.68-2.98,0-1.56-.29-3.08-.7-4.57-.22-.77-.58-1.48-1.37-1.86-.24-.12-.57-.25-.47-.59.1-.31.4-.47.73-.54.41-.08.78.04,1.16.18.71.26,1.43.47,2.18.53,2.05.15,3.13-.79,3.22-2.87.06-1.36-.18-2.7-.67-3.96-.75-1.95-2.45-2.63-4.58-1.89-.94.33-1.77.87-2.63,1.36-.44.25-.98.58-1.41.12-.37-.4.09-.8.26-1.17.42-.9.84-1.8.94-2.8.17-1.75-.59-3.05-2.07-3.61-1.62-.61-3.31-.08-4.28,1.37-.85,1.27-1.13,2.69-1.09,4.19.02.6.16,1.21-.58,1.51-.79.32-1.04-.32-1.38-.78-.85-1.17-3.28-2-3.43-2.04-.38-.07-.5.05-.7.1-1.93.56-2.48.81-2.19,2.84,1.33,2.24,3.4,3.27,5.91,3.54.2.02.39,0,.59.01.31.02.69-.03.73.4.05.46-.31.63-.67.68-1.2.16-2.36-.04-3.5-.39-.22-.07-.44-.15-.66-.23-1.52-.87-2.96-1.83-3.84-3.44-1.16-2.13-.5-3.78,1.82-4.53,1.88-.6,3.69-.42,5.39.56.68.39.99.57,1.24-.43.28-1.15.96-2.15,1.76-3.06,1.57-1.77,3.58-1.96,5.66-1.43,2.3.59,3.41,2.64,2.89,4.98-.13.57-.3,1.13-.5,1.86.91-.3,1.56-.82,2.37-.96,3.51-.64,6,1.5,6.21,5.39.18,3.36-.94,5.13-3.69,5.72-.61.13-1.25.1-1.94.14.77,2.11,1.13,4.25.88,6.45-.26,2.25-1.45,3.87-3.56,4.65-2.87,1.07-5.33-.52-6.28-3.97-1.45.84-2.96,1.53-4.63,1.75-.39.05-.79.1-1.18.1-2.99-.03-4.08-1.87-2.66-4.48.07-.13.15-.27.27-.49-.62-.19-1.14-.01-1.66.08-1.08.19-2.13.12-3.16-.25-.86-.31-1.61-.75-1.75-1.74-.14-1,.31-1.78,1.09-2.36,1.75-1.3,3.52-2.57,5.28-3.85Z"/>
      <path class="cls-1" d="M18.06,17.35c.39-.27.78-.54,1.17-.81-.56,1.79-2.06,2.25-3.65,2.44-3.28.38-5.1-1.9-4.2-4.98.73-2.52,3.45-4.35,5.63-3.65.47.15.89.32,1.04.84-.32-.11-.64-.21-.97-.32-3.22-.42-5.67,2.83-5.06,5.59.22.97.97,1.42,1.86,1.63,1.36.31,2.67.16,3.91-.52.1-.06.19-.13.27-.21Z"/>
      <path class="cls-5" d="M4,8.56c-.9-1.61-.29-2.87,1.52-3.05.46-.05.93-.13,1.37.11-.17.46-.6.58-.98.75-.98.44-1.59,1.19-1.91,2.2Z"/>
      <path class="cls-6" d="M18.02,17.55c-1.34,1.28-4.3,1.34-5.64.17-.87-.77-.85-1.77-.73-2.74.3-2.34,2.52-4.97,5.43-4.11-.98.02-1.87.29-2.61.96-1.95,1.55-2.08,3.65-.36,5.28.83.78,1.79.68,2.78.56.37-.05.71-.4,1.12-.13Z"/>
      <path class="cls-7" d="M18.02,17.55c-.46.12-.91.24-1.37.36-1.58.44-2.85-.13-3.63-1.62-.75-1.44-.45-3.32.67-4.24.23-.19.5-.22.78-.22-.51.86-.71,1.75-.26,2.71.05.11.12.24.1.34-.2.9-.22,1.72.75,2.23.81.43,1.65.46,2.53.25.15-.04.31-.01.47-.02,0,.07-.01.14-.04.2Z"/>
      <path class="cls-2" d="M18.05,11.19c1.9,1.97,2.19,3.28,1.18,5.35-.27.54-.73.86-1.28,1.06-.62.08-1.22.29-1.88.16-1.62-.34-2.05-.8-2.07-2.46,0-.49-.19-.93-.25-1.4-.11-.78.01-1.5.53-2.13.78-.76,1.64-1.29,2.79-1.1.4.03.71.24.98.53Z"/>
      <path class="cls-4" d="M18.14,14.93c-.02.66-.13,1.25-.6,1.67-.33.3-.67.04-.98-.13-.1-.06-.26-.18-.27-.2-.07-.09-.85-2.15-.64-3.34.07-.39.02-.85.43-1.04.47-.21.71.25.96.52.68.71,1.02,1.59,1.09,2.52Z"/>
    </g>
  </g>
</svg>